<svg xmlns="http://www.w3.org/2000/svg" viewBox="0 0 52 52"><defs><style>.a{fill:#e95d5d;}</style></defs><path class="a" d="M42.25,0H9.75A9.749,9.749,0,0,0,0,9.75v32.5A9.749,9.749,0,0,0,9.75,52h32.5A9.749,9.749,0,0,0,52,42.25V9.75A9.749,9.749,0,0,0,42.25,0Zm0,41.077a1.175,1.175,0,0,1-1.173,1.173H10.923A1.175,1.175,0,0,1,9.75,41.077V10.923A1.175,1.175,0,0,1,10.923,9.75H41.077a1.175,1.175,0,0,1,1.173,1.173ZM32.5,13H39v6.5H32.5Zm-13,13A6.5,6.5,0,1,0,26,19.5,6.5,6.5,0,0,0,19.5,26Zm16.169,0a9.669,9.669,0,1,1-19.337,0,6.4,6.4,0,0,1,.218-1.625H13V39H39V24.375H35.451A6.262,6.262,0,0,1,35.669,26Z"/></svg>