<svg xmlns="http://www.w3.org/2000/svg" viewBox="0 0 52 52"><defs><style>.a{fill:#2f91f3;}</style></defs><path class="a" d="M42.25,0H9.75A9.749,9.749,0,0,0,0,9.75v32.5A9.749,9.749,0,0,0,9.75,52h32.5A9.749,9.749,0,0,0,52,42.25V9.75A9.749,9.749,0,0,0,42.25,0ZM38.935,20.163q.02.414.02.829c0,8.46-6.438,18.213-18.213,18.213a18.117,18.117,0,0,1-9.812-2.876,13.159,13.159,0,0,0,1.528.091,12.845,12.845,0,0,0,7.95-2.74,6.412,6.412,0,0,1-5.98-4.446,6.452,6.452,0,0,0,2.893-.11,6.405,6.405,0,0,1-5.135-6.276v-.081a6.391,6.391,0,0,0,2.9.8A6.411,6.411,0,0,1,13.1,15.025,18.167,18.167,0,0,0,26.3,21.713a6.406,6.406,0,0,1,10.91-5.837,12.9,12.9,0,0,0,4.066-1.554,6.419,6.419,0,0,1-2.814,3.543,12.8,12.8,0,0,0,3.676-1.008A12.939,12.939,0,0,1,38.935,20.163Z"/></svg>