<svg xmlns="http://www.w3.org/2000/svg" viewBox="0 0 52 52"><defs><style>.a{fill:#c74523;}</style></defs><path class="a" d="M42.25,0H9.75A9.749,9.749,0,0,0,0,9.75v32.5A9.749,9.749,0,0,0,9.75,52h32.5A9.749,9.749,0,0,0,52,42.25V9.75A9.749,9.749,0,0,0,42.25,0Zm-23.5,43.495c-5.756,0-10.611-2.343-10.611-6.087,0-3.8,4.43-7.469,10.185-7.465.627,0,1.2-.016,1.8-.016a4.021,4.021,0,0,1-1.41-2.863,4.241,4.241,0,0,1,.527-1.937c-.312.023-.631.033-.959.033-4.729,0-7.894-3.364-7.894-7.533,0-4.079,4.371-7.6,9.019-7.6H29.767L27.44,11.7H24.154c2.181.839,3.341,3.38,3.341,5.986A6.961,6.961,0,0,1,24.57,23.1c-1.674,1.31-1.989,1.856-1.989,2.967,0,.949,1.794,2.561,2.73,3.224,2.74,1.937,3.624,3.737,3.624,6.737C28.932,39.773,25.308,43.495,18.746,43.495ZM45.5,22.812H39V29.3H35.753V22.812h-6.5V19.5h6.5V13H39v6.5h6.5Zm-21.729-4.92c-.462-3.5-3-6.318-5.668-6.4s-4.459,2.6-4,6.113,3,6.416,5.671,6.493S24.235,21.4,23.771,17.891ZM22,31.323a8.706,8.706,0,0,0-2.581-.413c-3.978-.042-7.54,2.425-7.54,5.392,0,3.026,2.873,5.544,6.851,5.544,5.593,0,7.54-2.366,7.54-5.389a4.673,4.673,0,0,0-.127-1.069C25.708,33.673,24.157,32.822,22,31.323Z"/></svg>