<svg xmlns="http://www.w3.org/2000/svg" viewBox="0 0 47.32 47.52"><defs><style>.a{fill:#fff;}</style></defs><path class="a" d="M46.32,46.32q1.8,2.04.36,3.72L43.92,52.8q-2.16,1.92-4.08,0L28.44,41.4a18.683,18.683,0,0,1-9.36,2.52A18.317,18.317,0,0,1,5.7,38.22,18.317,18.317,0,0,1,0,24.84,18.013,18.013,0,0,1,5.4,11.7,17.716,17.716,0,0,1,18.48,6.24a18.514,18.514,0,0,1,13.44,5.7,18.45,18.45,0,0,1,3,23.1l11.4,11.28ZM5.64,24.84A12.874,12.874,0,0,0,9.72,34.2a12.874,12.874,0,0,0,9.36,4.08,12.359,12.359,0,0,0,9.06-3.78,12.5,12.5,0,0,0,3.78-9.18,12.679,12.679,0,0,0-4.08-9.3A12.965,12.965,0,0,0,18.48,12a12.359,12.359,0,0,0-9.06,3.78,12.359,12.359,0,0,0-3.78,9.06h0Z" transform="translate(0 -6.24)"/></svg>