<svg xmlns="http://www.w3.org/2000/svg" viewBox="0 0 23.09 14.752"><defs><style>.a{fill:#686565;}</style></defs><path class="a" d="M22.823,80.353a13.139,13.139,0,0,1-22.557,0,1.924,1.924,0,0,1,0-1.954,13.139,13.139,0,0,1,22.557,0A1.924,1.924,0,0,1,22.823,80.353ZM11.545,73.924a11.141,11.141,0,0,0-9.621,5.452,11.127,11.127,0,0,0,8.665,5.412,2.245,2.245,0,1,0-3.855-1.564v0a5.452,5.452,0,1,1,9.144.741,11.087,11.087,0,0,0,5.287-4.591A11.141,11.141,0,0,0,11.545,73.924Z" transform="translate(0.001 -72)"/></svg>