<svg xmlns="http://www.w3.org/2000/svg" viewBox="0 0 34 34"><defs><style>.a{fill:#686565;}</style></defs><g transform="translate(0 -0.004)"><path class="a" d="M5.206,23.382h9.628v5.8c-.157,2.614.6,4.82,2.2,4.818,2.8,0,2.718-2.259,2.718-2.259.5-8,7.871-10.488,7.871-10.488v-17l-.98-.132C18.606,4.123,23.43,0,10.221,0,.191,0,0,8.832,0,14.881S2.756,23.382,5.206,23.382ZM31.875,2.129A2.126,2.126,0,0,0,29.75,4.255V21.191a2.125,2.125,0,1,0,4.25,0V4.255A2.126,2.126,0,0,0,31.875,2.129Z" transform="translate(0)"/></g></svg>