<svg xmlns="http://www.w3.org/2000/svg" viewBox="0 0 34 33.996"><defs><style>.a{fill:#686565;}</style></defs><g transform="translate(0 -0.004)"><path class="a" d="M28.794,10.625H19.165v-5.8c.157-2.614-.6-4.82-2.2-4.817-2.8,0-2.718,2.259-2.718,2.259-.5,8-7.871,10.487-7.871,10.487v17l.98.132C15.394,29.882,10.57,34,23.779,34,33.809,34,34,25.173,34,19.125S31.244,10.625,28.794,10.625ZM2.125,31.875A2.126,2.126,0,0,0,4.25,29.75V12.816a2.125,2.125,0,1,0-4.25,0V29.75A2.126,2.126,0,0,0,2.125,31.875Z" transform="translate(0 0)"/></g></svg>