<svg xmlns="http://www.w3.org/2000/svg" viewBox="0 0 52 52"><defs><style>.a{fill:#19e34f;}</style></defs><path class="a" d="M58.471,32A25.43,25.43,0,0,0,32.944,57.33a25.069,25.069,0,0,0,3.663,13.08L32,84l14.133-4.49A25.393,25.393,0,1,0,58.471,32ZM71.165,66.95c-.6,1.489-3.317,2.848-4.515,2.91s-1.231.928-7.758-1.908S48.44,58.221,48.13,57.777s-2.528-3.6-2.408-6.785a7.233,7.233,0,0,1,2.484-5.307,2.5,2.5,0,0,1,1.768-.744c.514-.008.847-.015,1.227,0s.951-.08,1.445,1.235,1.676,4.545,1.828,4.874a1.183,1.183,0,0,1,.012,1.134,4.433,4.433,0,0,1-.692,1.054c-.341.365-.717.817-1.021,1.1-.339.309-.693.647-.337,1.308a19.534,19.534,0,0,0,3.456,4.612,17.811,17.811,0,0,0,5.119,3.4c.64.349,1.022.31,1.419-.108s1.7-1.828,2.158-2.457.889-.508,1.479-.27,3.733,1.922,4.373,2.269,1.067.526,1.22.8a5.361,5.361,0,0,1-.5,3.06Z" transform="translate(-32 -32)"/></svg>