<svg xmlns="http://www.w3.org/2000/svg" viewBox="0 0 22.104 27.646"><defs><style>.a{fill:#fcfcfc;}</style></defs><path class="a" d="M107.191,83.544c2.149,0,3.324-1.52,3.324-3.662h-6.654C103.861,82.024,105.036,83.544,107.191,83.544Zm10.786-7.172c-1.064-1.4-3.158-2.225-3.158-8.506,0-6.447-2.847-9.038-5.5-9.66-.249-.062-.428-.145-.428-.408v-.2a1.686,1.686,0,1,0-3.372,0v.2c0,.256-.18.345-.428.408-2.66.629-5.5,3.213-5.5,9.66,0,6.281-2.094,7.1-3.158,8.506a1.372,1.372,0,0,0,1.1,2.2h19.354A1.372,1.372,0,0,0,117.978,76.371Z" transform="translate(-96.153 -55.897)"/></svg>