<svg xmlns="http://www.w3.org/2000/svg" viewBox="0 0 36.998 37"><path d="M100.989,100.065c-.694-3.064-4.654-4.558-6.022-5.039a44.9,44.9,0,0,0-5.02-.964,5.1,5.1,0,0,1-2.322-1.07c-.385-.462-.154-4.75-.154-4.75a14.291,14.291,0,0,0,1.1-2.091,26.971,26.971,0,0,0,.809-3.652s.79,0,1.07-1.387c.3-1.513.771-2.1.713-3.228-.058-1.108-.665-1.079-.665-1.079a16.894,16.894,0,0,0,.655-4.943C91.238,67.9,88.136,64,82.518,64c-5.695,0-8.73,3.9-8.643,7.862a17.621,17.621,0,0,0,.646,4.943s-.607-.029-.665,1.079c-.058,1.127.414,1.715.713,3.228.27,1.387,1.07,1.387,1.07,1.387a26.969,26.969,0,0,0,.809,3.652,14.291,14.291,0,0,0,1.1,2.091s.231,4.288-.154,4.75a5.1,5.1,0,0,1-2.322,1.07,44.9,44.9,0,0,0-5.02.964c-1.368.482-5.328,1.975-6.022,5.039a.77.77,0,0,0,.761.935h35.449A.769.769,0,0,0,100.989,100.065Z" transform="translate(-64.009 -64)"/></svg>