<svg xmlns="http://www.w3.org/2000/svg" viewBox="0 0 36 36.393"><path d="M35.017,1.342,36,2.329c1.361,1.362,1.155,3.777-.464,5.394L15.18,28.083,8.583,30.5a1.287,1.287,0,0,1-1.8-.879,1.553,1.553,0,0,1,.075-.853l2.46-6.654,20.3-20.306c1.618-1.617,4.033-1.824,5.394-.462ZM14.292,3.366a1.673,1.673,0,1,1,0,3.347H7.6A3.347,3.347,0,0,0,4.251,10.06V30.142A3.347,3.347,0,0,0,7.6,33.489H27.679a3.347,3.347,0,0,0,3.347-3.347V23.448a1.673,1.673,0,1,1,3.347,0v6.694a6.694,6.694,0,0,1-6.694,6.694H7.6A6.694,6.694,0,0,1,.9,30.142V10.06A6.694,6.694,0,0,1,7.6,3.366h6.694Z" transform="translate(-0.904 -0.443)"/></svg>