<svg xmlns="http://www.w3.org/2000/svg" viewBox="0 0 24 24"><defs><style>.a{fill:#686565;fill-rule:evenodd;}</style></defs><path class="a" d="M12.017,1a12,12,0,1,0,0,24,11.809,11.809,0,0,0,2.369-.24c-.292-.137-.343-1.251-.034-1.869.326-.7,1.391-2.486.343-3.086s-.755-.857-1.391-1.56-.378-.806-.429-.994c-.137-.583.618-1.526.67-1.611a1.566,1.566,0,0,0,0-.566c0-.137-.464-.377-.584-.394-.1,0-.189.189-.343.223a3.017,3.017,0,0,1-1.013-.566c-.155-.137-.24-.394-.464-.583-.223-.223-.24-.051-.567-.189s-1.373-.531-2.2-.823c-.824-.326-.893-.806-.893-1.131-.034-.343-.515-.806-.721-1.149-.24-.343-.275-.806-.343-.7s.429,1.337.343,1.389c-.086.034-.275-.343-.515-.651-.24-.326.24-.154-.515-1.629s.24-2.229.292-3,.652.291.326-.223,0-1.526-.24-1.9c-.223-.377-1.511.429-1.511.429.034-.377,1.185-.994,1.991-1.577s1.339-.1,1.991.086c.67.223.7.154.481-.086-.223-.223.1-.291.618-.223.481.086.652.7,1.425.617.807-.051.086.154.189.377s-.1.189-.652.514c-.515.343.034.377.944,1.046s.652-.429.532-.943.67-.1.67-.1c.567.377.464.034.858.137a8.346,8.346,0,0,1,1.562,1.1c-1.425.754-.532.823-.292,1.011s-.481.514-.481.514c-.292-.291-.326.034-.515.137s-.034.377-.034.377c-.961.154-.755,1.183-.721,1.423,0,.24-.652.617-.807.994-.155.343.429,1.1.1,1.131-.326.051-.584-1.131-2.249-.7-.515.137-1.614.7-1.013,1.851.618,1.183,1.579-.326,1.906-.154s-.1.909-.034.943a1.02,1.02,0,0,1,.961,1.046c.052,1.011,1.322.909,1.579.943.292,0,1.2-.754,1.322-.771.1-.051.652-.48,1.768.154,1.133.617,1.682.531,2.06.806s.137.806.481.994,1.82-.051,2.2.531-1.511,3.583-2.094,3.909-.824,1.1-1.442,1.577a21.038,21.038,0,0,1-2.18,1.56c-.7.394-.807,1.131-1.133,1.371A12.005,12.005,0,0,0,11.983,1.034Zm2.815,11.246c-.155.051-.481.377-1.339-.137a3.8,3.8,0,0,0-1.476-.48s-.086-.189.292-.24c.755-.086,1.682.7,1.906.7s.326-.223.7-.086S15,12.229,14.833,12.246ZM10.884,2.2c-.086-.051.052-.137.155-.24.052-.051.034-.189.086-.24.189-.189,1.047-.429.893.051-.189.463-1,.514-1.133.429ZM13,3.726c-.326-.034-1-.086-.893-.24.515-.48-.155-.651-.584-.651-.429-.034-.584-.274-.378-.326a3.093,3.093,0,0,1,1.2.137c.137.1.893.429.944.651C13.322,3.52,13.288,3.726,13,3.726Zm2.524-.086c-.24.154-1.425-.7-1.631-.891-.961-.823-1.528-.531-1.717-.7s-.137-.326.189-.583,1.185.1,1.717.154c.515.051,1.133.463,1.133.943.034.429.567.857.326,1.08h-.017Z" transform="translate(0 -1)"/></svg>